<svg width="19" height="22" viewBox="0 0 19 22" fill="none" xmlns="http://www.w3.org/2000/svg">
<path d="M18.762 10.7379C19.1064 10.3212 19.0731 9.68243 18.6877 9.31161L10.1964 1.13729C9.81094 0.76647 9.19301 0.774238 8.8157 1.1548L0.295504 9.74743C-0.0818038 10.128 -0.100322 10.7659 0.254503 11.1717L0.468116 11.4164C0.822508 11.8222 1.39534 11.8706 1.74676 11.5242L2.38352 10.8968V20.0815C2.38352 20.645 2.79854 21.1012 3.31037 21.1012H6.63157C7.1434 21.1012 7.55843 20.645 7.55843 20.0815V13.6559H11.7946V20.0815C11.7873 20.6446 12.1535 21.1008 12.6653 21.1008H16.185C16.6968 21.1008 17.1118 20.6446 17.1118 20.0811V11.0261C17.1118 11.0261 17.2877 11.1957 17.5047 11.4055C17.7213 11.6149 18.1762 11.447 18.5206 11.0298L18.762 10.7379Z" fill="#000000"/>
</svg>
