<svg width="133" height="169" viewBox="0 0 133 169" fill="none" xmlns="http://www.w3.org/2000/svg">
<path d="M92.6113 80.5234C92.5788 89.8333 89.5026 98.1341 83.3828 105.426C78.8255 110.862 72.6243 114.736 64.7793 117.047C60.7103 118.251 56.0879 118.902 50.9121 119V134.82H21.9082V58.3066H37.9238L44.7109 67.6816C52.0026 59.9017 59.6686 56.0117 67.709 56.0117C75.7493 56.0117 81.9017 58.3229 86.166 62.9453C90.4629 67.5677 92.6113 73.4271 92.6113 80.5234ZM65.5117 76.5684C64.8281 76.3079 63.9818 76.1777 62.9727 76.1777C60.9219 76.1777 58.7083 77.3659 56.332 79.7422C53.9883 82.0859 52.1816 84.7715 50.9121 87.7988V101.812C51.4655 101.422 52.2793 100.901 53.3535 100.25C54.4603 99.5664 55.6647 98.7526 56.9668 97.8086C64.6491 92.3398 68.4902 86.7734 68.4902 81.1094C68.4902 78.8307 67.4974 77.3171 65.5117 76.5684Z" fill="url(#paint0_linear_34_7)"/>
<path d="M56.3887 80.5234C56.4212 89.8333 59.4974 98.1341 65.6172 105.426C70.1745 110.862 76.3757 114.736 84.2207 117.047C88.2897 118.251 92.9121 118.902 98.0879 119V134.82H127.092V58.3066H111.076L104.289 67.6816C96.9974 59.9017 89.3314 56.0117 81.291 56.0117C73.2507 56.0117 67.0983 58.3229 62.834 62.9453C58.5371 67.5677 56.3887 73.4271 56.3887 80.5234ZM83.4883 76.5684C84.1719 76.3079 85.0182 76.1777 86.0273 76.1777C88.0781 76.1777 90.2917 77.3659 92.668 79.7422C95.0117 82.0859 96.8184 84.7715 98.0879 87.7988V101.812C97.5345 101.422 96.7207 100.901 95.6465 100.25C94.5397 99.5664 93.3353 98.7526 92.0332 97.8086C84.3509 92.3398 80.5098 86.7734 80.5098 81.1094C80.5098 78.8307 81.5026 77.3171 83.4883 76.5684Z" fill="url(#paint1_linear_34_7)"/>
<defs>
<linearGradient id="paint0_linear_34_7" x1="56.5" y1="0" x2="56.5" y2="169" gradientUnits="userSpaceOnUse">
<stop stop-color="#FD8812"/>
<stop offset="1" stop-color="#F5350B"/>
</linearGradient>
<linearGradient id="paint1_linear_34_7" x1="66.5" y1="0" x2="66.5" y2="169" gradientUnits="userSpaceOnUse">
<stop stop-color="#FD8812"/>
<stop offset="1" stop-color="#F5350B"/>
</linearGradient>
</defs>
</svg>
