<svg width="22" height="21" viewBox="0 0 22 21" fill="none" xmlns="http://www.w3.org/2000/svg">
<path d="M14.8294 10.1505H6.64453C6.28853 10.1505 6 10.4749 6 10.8752C6 11.2754 6.28853 11.5998 6.64453 11.5998H14.8294C15.1854 11.5998 15.4739 11.2754 15.4739 10.8752C15.4739 10.4749 15.1854 10.1505 14.8294 10.1505Z" fill="#000000"/>
<path d="M14.8294 6.7777H6.64453C6.28853 6.7777 6 7.10228 6 7.50234C6 7.90258 6.28853 8.22697 6.64453 8.22697H14.8294C15.1854 8.22697 15.4739 7.90258 15.4739 7.50234C15.4739 7.10228 15.1854 6.7777 14.8294 6.7777Z" fill="#000000"/>
<path d="M17.4883 0.0320282H4.51172C2.0239 0.0320282 0 2.29294 0 5.07211V12.8565C0 15.0741 1.30333 17.0056 3.19194 17.6238L5.37093 20.0581C5.49194 20.1931 5.65576 20.2691 5.8268 20.2691C5.99767 20.2691 6.16165 20.1931 6.2825 20.0581L8.28139 17.825H17.4883C19.9761 17.825 22 15.564 22 12.7849V5.07211C22 2.29294 19.9761 0.0320282 17.4883 0.0320282ZM20.7109 12.7849C20.7109 14.77 19.2653 16.3849 17.4883 16.3849H8.01451C7.84364 16.3849 7.67966 16.4609 7.55881 16.5959L5.8268 18.5307L3.98216 16.4701C3.89941 16.3776 3.79568 16.312 3.68205 16.2805C2.27315 15.8888 1.28906 14.4808 1.28906 12.8565V5.07211C1.28906 3.08702 2.73473 1.47205 4.51172 1.47205H17.4883C19.2653 1.47205 20.7109 3.08702 20.7109 5.07211V12.7849Z" fill="#000000"/>
</svg>
