<svg width="19" height="22" viewBox="0 0 19 22" fill="none" xmlns="http://www.w3.org/2000/svg">
<path d="M16.4731 12.2592C16.5091 11.9219 16.5331 11.5712 16.5331 11.2069C16.5331 10.8426 16.5091 10.4919 16.4611 10.1546L18.4891 8.37372C18.6691 8.21183 18.7171 7.91502 18.6091 7.68566L16.6891 3.94856C16.5691 3.70572 16.3171 3.62477 16.1011 3.70572L13.7131 4.78502C13.2091 4.3533 12.6811 4.00253 12.0931 3.7327L11.7331 0.872532C11.6971 0.602705 11.4931 0.413826 11.2531 0.413826H7.41311C7.17311 0.413826 6.98112 0.602705 6.94512 0.872532L6.58511 3.7327C5.99711 4.00253 5.45712 4.36679 4.96512 4.78502L2.57711 3.70572C2.36111 3.61128 2.10911 3.70572 1.98911 3.94856L0.0691144 7.68566C-0.0508856 7.92851 -0.00288541 8.21183 0.189115 8.37372L2.21711 10.1546C2.16911 10.4919 2.13311 10.8561 2.13311 11.2069C2.13311 11.5577 2.15711 11.9219 2.20511 12.2592L0.177114 14.0401C-0.0028857 14.202 -0.0508856 14.4988 0.0571144 14.7281L1.97711 18.4653C2.09711 18.7081 2.34911 18.789 2.56511 18.7081L4.95311 17.6288C5.45711 18.0605 5.98511 18.4113 6.57311 18.6811L6.93312 21.5413C6.98111 21.8111 7.17311 22 7.41311 22H11.2531C11.4931 22 11.6971 21.8111 11.7211 21.5413L12.0811 18.6811C12.6691 18.4113 13.2091 18.047 13.7011 17.6288L16.0891 18.7081C16.3051 18.8025 16.5571 18.7081 16.6771 18.4653L18.5971 14.7281C18.7171 14.4853 18.6691 14.202 18.4771 14.0401L16.4731 12.2592ZM9.33311 15.2543C7.35312 15.2543 5.73311 13.433 5.73311 11.2069C5.73311 8.98083 7.35312 7.1595 9.33311 7.1595C11.3131 7.1595 12.9331 8.98083 12.9331 11.2069C12.9331 13.433 11.3131 15.2543 9.33311 15.2543Z" fill="#000000"/>
</svg>
